<?xml version="1.0" standalone="no"?>
<!DOCTYPE svg PUBLIC "-//W3C//DTD SVG 20010904//EN"
 "http://www.w3.org/TR/2001/REC-SVG-20010904/DTD/svg10.dtd">
<svg version="1.0" xmlns="http://www.w3.org/2000/svg"
 width="1052.000000pt" height="637.000000pt" viewBox="0 0 1052.000000 637.000000"
 preserveAspectRatio="xMidYMid meet">

<g transform="translate(0.000000,637.000000) scale(0.100000,-0.100000)"
fill="#000000" stroke="none">
<path d="M1453 5065 c-35 -15 -49 -48 -39 -90 7 -26 -2 -16 726 -875 277 -327
548 -647 603 -712 59 -70 112 -123 133 -133 45 -21 215 -33 1254 -90 412 -22
400 -20 400 -81 0 -37 -4 -46 -22 -53 -25 -9 -12 -8 -778 -51 -680 -38 -818
-49 -852 -66 -41 -21 -10 15 -877 -1009 -107 -126 -218 -257 -246 -290 -302
-351 -345 -407 -345 -445 0 -30 6 -43 27 -60 27 -21 33 -21 353 -18 l325 3 92
47 c96 49 990 523 1238 656 77 41 275 147 440 235 165 87 377 201 470 251 94
51 304 164 469 252 228 121 303 166 317 189 18 28 19 51 17 367 l-3 336 -25
27 c-13 14 -72 51 -130 82 -90 48 -251 135 -565 303 -151 81 -625 335 -705
377 -202 107 -259 138 -325 173 -280 150 -1076 570 -1165 616 -68 34 -132 59
-168 64 -94 16 -581 12 -619 -5z"/>
<path d="M8358 5070 c-27 -5 -110 -41 -190 -83 -312 -163 -944 -498 -1373
-727 -1340 -715 -1468 -785 -1490 -814 -19 -26 -20 -42 -20 -361 0 -323 1
-334 21 -362 13 -18 97 -69 225 -139 161 -87 1385 -742 1774 -949 44 -24 181
-97 305 -162 493 -263 667 -353 709 -368 36 -12 99 -15 348 -15 336 0 355 3
368 59 11 49 13 46 -320 436 -200 235 -779 917 -815 960 -175 212 -304 354
-333 368 -34 17 -236 34 -672 57 -277 15 -707 39 -848 49 -125 8 -137 13 -137
59 0 44 16 59 72 66 29 3 260 17 513 31 960 53 1014 57 1071 80 34 14 68 53
776 890 163 193 378 447 479 565 100 118 188 225 196 237 22 33 19 81 -6 106
-21 22 -28 22 -314 24 -160 0 -313 -3 -339 -7z"/>
</g>
</svg>
